<svg width="40" height="40" viewBox="0 0 40 40" fill="none" xmlns="http://www.w3.org/2000/svg">
<path d="M0 8C0 3.58172 3.58172 0 8 0H32C36.4183 0 40 3.58172 40 8V32C40 36.4183 36.4183 40 32 40H8C3.58172 40 0 36.4183 0 32V8Z" fill="#3843D0" fill-opacity="0.1"/>
<path d="M24.5189 24.5009C24.6939 24.3649 24.8529 24.2059 25.1699 23.8889L29.1269 19.9309C29.2229 19.8359 29.1789 19.6709 29.0519 19.6259C28.4327 19.4101 27.8706 19.0566 27.4079 18.5919C26.9432 18.1292 26.5897 17.5671 26.3739 16.9479C26.3289 16.8209 26.1639 16.7769 26.0689 16.8729L22.1099 20.8299C21.7929 21.1469 21.6339 21.3059 21.4979 21.4809C21.3369 21.6879 21.1979 21.9109 21.0859 22.1469C20.9909 22.3469 20.9199 22.5609 20.7779 22.9869L20.5939 23.5369L20.3019 24.4119L20.0289 25.2319C19.9948 25.3347 19.99 25.4449 20.015 25.5503C20.04 25.6556 20.0938 25.7519 20.1703 25.8285C20.2469 25.905 20.3432 25.9588 20.4485 25.9838C20.5539 26.0088 20.6641 26.004 20.7669 25.9699L21.5869 25.6969L22.4619 25.4049L23.0119 25.2209C23.4379 25.0789 23.6519 25.0089 23.8519 24.9129C24.0879 24.7999 24.3129 24.6629 24.5189 24.5009ZM30.3669 18.6919C30.5677 18.491 30.7271 18.2525 30.8357 17.99C30.9444 17.7275 31.0003 17.4462 31.0003 17.1621C31.0002 16.878 30.9442 16.5967 30.8355 16.3342C30.7267 16.0717 30.5673 15.8333 30.3664 15.6324C30.1655 15.4316 29.9269 15.2722 29.6645 15.1636C29.402 15.0549 29.1206 14.999 28.8365 14.999C28.5524 14.9991 28.2711 15.0551 28.0087 15.1638C27.7462 15.2726 27.5077 15.432 27.3069 15.6329L27.1809 15.7609C27.1203 15.8206 27.0752 15.8941 27.0495 15.9751C27.0237 16.0561 27.018 16.1422 27.0329 16.2259C27.0529 16.3329 27.0879 16.4909 27.1529 16.6779C27.2829 17.0529 27.5289 17.5449 27.9919 18.0079C28.3658 18.3848 28.8207 18.6718 29.3219 18.8469C29.5099 18.9119 29.6669 18.9469 29.7739 18.9669C29.8576 18.9817 29.9436 18.976 30.0246 18.9502C30.1056 18.9244 30.1791 18.8794 30.2389 18.8189L30.3659 18.6919H30.3669Z" fill="url(#paint0_linear_171_1496)"/>
<path fillRule="evenodd" clipRule="evenodd" d="M12.172 11.172C11 12.343 11 14.229 11 18V22C11 25.771 11 27.657 12.172 28.828C13.343 30 15.229 30 19 30H21C24.771 30 26.657 30 27.828 28.828C28.981 27.676 29 25.832 29 22.18L26.182 24.998C25.912 25.268 25.691 25.489 25.442 25.684C25.1494 25.912 24.8329 26.1075 24.498 26.267C24.191 26.4047 23.8757 26.5232 23.554 26.622L21.242 27.393C20.875 27.5154 20.4811 27.5332 20.1046 27.4443C19.728 27.3554 19.3837 27.1635 19.1101 26.8899C18.8365 26.6163 18.6446 26.272 18.5557 25.8954C18.4668 25.5189 18.4846 25.125 18.607 24.758L18.881 23.938L19.356 22.512L19.377 22.446C19.498 22.084 19.597 21.788 19.733 21.502C19.893 21.167 20.088 20.851 20.316 20.559C20.511 20.309 20.732 20.089 21.002 19.819L25.008 15.812L26.12 14.7L26.247 14.573C26.5868 14.2322 26.9907 13.962 27.4354 13.7778C27.88 13.5937 28.3567 13.4992 28.838 13.5C28.687 12.47 28.394 11.737 27.828 11.172C26.657 10 24.771 10 21 10H19C15.229 10 13.343 10 12.172 11.172ZM15.25 17C15.25 16.8011 15.329 16.6103 15.4697 16.4697C15.6103 16.329 15.8011 16.25 16 16.25H22.5C22.6989 16.25 22.8897 16.329 23.0303 16.4697C23.171 16.6103 23.25 16.8011 23.25 17C23.25 17.1989 23.171 17.3897 23.0303 17.5303C22.8897 17.671 22.6989 17.75 22.5 17.75H16C15.8011 17.75 15.6103 17.671 15.4697 17.5303C15.329 17.3897 15.25 17.1989 15.25 17ZM15.25 21C15.25 20.8011 15.329 20.6103 15.4697 20.4697C15.6103 20.329 15.8011 20.25 16 20.25H18.5C18.6989 20.25 18.8897 20.329 19.0303 20.4697C19.171 20.6103 19.25 20.8011 19.25 21C19.25 21.1989 19.171 21.3897 19.0303 21.5303C18.8897 21.671 18.6989 21.75 18.5 21.75H16C15.8011 21.75 15.6103 21.671 15.4697 21.5303C15.329 21.3897 15.25 21.1989 15.25 21ZM15.25 25C15.25 24.8011 15.329 24.6103 15.4697 24.4697C15.6103 24.329 15.8011 24.25 16 24.25H17.5C17.6989 24.25 17.8897 24.329 18.0303 24.4697C18.171 24.6103 18.25 24.8011 18.25 25C18.25 25.1989 18.171 25.3897 18.0303 25.5303C17.8897 25.671 17.6989 25.75 17.5 25.75H16C15.8011 25.75 15.6103 25.671 15.4697 25.5303C15.329 25.3897 15.25 25.1989 15.25 25Z" fill="url(#paint1_linear_171_1496)"/>
<defs>
<linearGradient id="paint0_linear_171_1496" x1="20.1421" y1="15.6439" x2="31.0003" y2="15.6439" gradientUnits="userSpaceOnUse">
<stop stop-color="#4A56EE"/>
<stop offset="0.942708" stop-color="#7A4CDD"/>
</linearGradient>
<linearGradient id="paint1_linear_171_1496" x1="11.2338" y1="11.1724" x2="29" y2="11.1724" gradientUnits="userSpaceOnUse">
<stop stop-color="#4A56EE"/>
<stop offset="0.942708" stop-color="#7A4CDD"/>
</linearGradient>
</defs>
</svg>
