<svg width="48" height="48" viewBox="0 0 48 48" fill="none" xmlns="http://www.w3.org/2000/svg">
<path d="M0 8C0 3.58172 3.58172 0 8 0H40C44.4183 0 48 3.58172 48 8V40C48 44.4183 44.4183 48 40 48H8C3.58172 48 0 44.4183 0 40V8Z" fill="#EBEBEB"/>
<path d="M22 21V26C22 26.5304 22.2107 27.0391 22.5858 27.4142C22.9609 27.7893 23.4696 28 24 28C24.5304 28 25.0391 27.7893 25.4142 27.4142C25.7893 27.0391 26 26.5304 26 26V19C26 17.9391 25.5786 16.9217 24.8284 16.1716C24.0783 15.4214 23.0609 15 22 15C20.9391 15 19.9217 15.4214 19.1716 16.1716C18.4214 16.9217 18 17.9391 18 19V27C18 28.5913 18.6321 30.1174 19.7574 31.2426C20.8826 32.3679 22.4087 33 24 33C25.5913 33 27.1174 32.3679 28.2426 31.2426C29.3679 30.1174 30 28.5913 30 27V17" stroke="#85858F" strokeLinejoin="2" stroke-linecap="round" strokeLinejoin="round"/>
</svg>
