<svg width="40" height="40" viewBox="0 0 40 40" fill="none" xmlns="http://www.w3.org/2000/svg">
<rect width="40" height="40" rx="20" fill="#28A745" fill-opacity="0.1"/>
<path d="M13 12V18.025V18V28V12ZM16 22H18.5C18.65 21.6167 18.8333 21.2583 19.05 20.925C19.2667 20.5917 19.5167 20.2833 19.8 20H16C15.7167 20 15.4793 20.096 15.288 20.288C15.0967 20.48 15.0007 20.7173 15 21C15 21.2833 15.096 21.521 15.288 21.713C15.48 21.905 15.7173 22.0007 16 22ZM16 26H18.175C18.0917 25.6667 18.0377 25.3333 18.013 25C17.9883 24.6667 17.9923 24.3333 18.025 24H16C15.7167 24 15.4793 24.096 15.288 24.288C15.0967 24.48 15.0007 24.7173 15 25C15 25.2833 15.096 25.521 15.288 25.713C15.48 25.905 15.7173 26.0007 16 26ZM13 30C12.45 30 11.9793 29.8043 11.588 29.413C11.1967 29.0217 11.0007 28.5507 11 28V12C11 11.45 11.196 10.9793 11.588 10.588C11.98 10.1967 12.4507 10.0007 13 10H20.175C20.4417 10 20.696 10.05 20.938 10.15C21.18 10.25 21.3923 10.3917 21.575 10.575L26.425 15.425C26.6083 15.6083 26.75 15.821 26.85 16.063C26.95 16.305 27 16.559 27 16.825V18.5C26.6833 18.3667 26.3583 18.2627 26.025 18.188C25.6917 18.1133 25.35 18.059 25 18.025V17H21C20.7167 17 20.4793 16.904 20.288 16.712C20.0967 16.52 20.0007 16.2827 20 16V12H13V28H19.025C19.2917 28.4 19.5917 28.771 19.925 29.113C20.2583 29.455 20.625 29.7507 21.025 30H13ZM24.5 27C25.2 27 25.7917 26.7583 26.275 26.275C26.7583 25.7917 27 25.2 27 24.5C27 23.8 26.7583 23.2083 26.275 22.725C25.7917 22.2417 25.2 22 24.5 22C23.8 22 23.2083 22.2417 22.725 22.725C22.2417 23.2083 22 23.8 22 24.5C22 25.2 22.2417 25.7917 22.725 26.275C23.2083 26.7583 23.8 27 24.5 27ZM30.3 30.3C30.1167 30.4833 29.8833 30.575 29.6 30.575C29.3167 30.575 29.0833 30.4833 28.9 30.3L26.9 28.3C26.55 28.5333 26.171 28.7083 25.763 28.825C25.355 28.9417 24.934 29 24.5 29C23.25 29 22.1877 28.5627 21.313 27.688C20.4383 26.8133 20.0007 25.7507 20 24.5C20 23.25 20.4377 22.1877 21.313 21.313C22.1883 20.4383 23.2507 20.0007 24.5 20C25.75 20 26.8127 20.4377 27.688 21.313C28.5633 22.1883 29.0007 23.2507 29 24.5C29 24.9333 28.9417 25.3543 28.825 25.763C28.7083 26.1717 28.5333 26.5507 28.3 26.9L30.3 28.9C30.4833 29.0833 30.575 29.3167 30.575 29.6C30.575 29.8833 30.4833 30.1167 30.3 30.3Z" fill="#28A745"/>
</svg>
