<svg width="81" height="40" viewBox="0 0 81 40" fill="none" xmlns="http://www.w3.org/2000/svg">
<g id="Google logo">
<path id="Vector" d="M21.8561 17.6306H13.5095V20.1072H19.4295C19.1361 23.5739 16.2475 25.0619 13.5195 25.0619C12.6552 25.0657 11.7989 24.8973 11.0005 24.5665C10.2021 24.2357 9.47755 23.7492 8.86922 23.1354C8.26088 22.5215 7.78093 21.7926 7.45739 20.9912C7.13384 20.1899 6.97318 19.3321 6.98479 18.4679C6.98479 14.7186 9.88746 11.8319 13.5275 11.8319C16.3355 11.8319 17.9901 13.6219 17.9901 13.6219L19.7235 11.8259C19.7235 11.8259 17.4968 9.3479 13.4368 9.3479C8.26679 9.3479 4.26746 13.7112 4.26746 18.4239C4.26746 23.0419 8.02946 27.5452 13.5675 27.5452C18.4388 27.5452 22.0048 24.2079 22.0048 19.2732C22.0048 18.2319 21.8535 17.6306 21.8535 17.6306H21.8561Z" fill="#85858F"/>
<path id="Vector_2" d="M28.6941 15.8366C25.2688 15.8366 22.8141 18.5146 22.8141 21.6366C22.8141 24.8059 25.1941 27.5333 28.7341 27.5333C31.9381 27.5333 34.5628 25.0846 34.5628 21.7046C34.5628 17.8379 31.5094 15.8359 28.6941 15.8359V15.8366ZM28.7274 18.1339C30.4114 18.1339 32.0074 19.4959 32.0074 21.6899C32.0074 23.8366 30.4181 25.2379 28.7194 25.2379C26.8528 25.2379 25.3861 23.7433 25.3861 21.6726C25.3861 19.6459 26.8394 18.1339 28.7328 18.1339H28.7274Z" fill="#85858F"/>
<path id="Vector_3" d="M41.4816 15.8366C38.0562 15.8366 35.6016 18.5146 35.6016 21.6366C35.6016 24.8059 37.9816 27.5333 41.5216 27.5333C44.7256 27.5333 47.3502 25.0846 47.3502 21.7046C47.3502 17.8379 44.2969 15.8359 41.4816 15.8359V15.8366ZM41.5149 18.1339C43.1989 18.1339 44.7949 19.4959 44.7949 21.6899C44.7949 23.8366 43.2056 25.2379 41.5069 25.2379C39.6402 25.2379 38.1736 23.7433 38.1736 21.6726C38.1736 19.6459 39.6269 18.1339 41.5202 18.1339H41.5149Z" fill="#85858F"/>
<path id="Vector_4" d="M54.0235 15.8433C50.8795 15.8433 48.4088 18.5966 48.4088 21.6873C48.4088 25.2073 51.2735 27.5419 53.9688 27.5419C55.6355 27.5419 56.5221 26.8799 57.1688 26.1206V27.2739C57.1688 29.2919 55.9435 30.5006 54.0941 30.5006C52.3075 30.5006 51.4115 29.1719 51.0941 28.4186L48.8461 29.3519C49.6435 31.0386 51.2488 32.7966 54.1128 32.7966C57.2461 32.7966 59.6208 30.8279 59.6208 26.6986V16.1946H57.1781V17.1853C56.4248 16.3719 55.3928 15.8433 54.0248 15.8433H54.0235ZM54.2501 18.1366C55.7915 18.1366 57.3741 19.4526 57.3741 21.6999C57.3741 23.9846 55.7941 25.2433 54.2161 25.2433C52.5401 25.2433 50.9808 23.8833 50.9808 21.7213C50.9808 19.4759 52.6008 18.1366 54.2501 18.1366Z" fill="#85858F"/>
<path id="Vector_5" d="M70.5382 15.8293C67.5729 15.8293 65.0829 18.1893 65.0829 21.6693C65.0829 25.3533 67.8582 27.538 70.8162 27.538C73.2909 27.538 74.8162 26.1847 75.7162 24.9713L73.6942 23.626C73.1696 24.4393 72.2922 25.236 70.8289 25.236C69.1849 25.236 68.4289 24.336 67.9602 23.4627L75.8022 20.2093L75.4022 19.256C74.6449 17.3893 72.8769 15.8293 70.5382 15.8293ZM70.6402 18.0787C71.7089 18.0787 72.4776 18.6467 72.8042 19.328L67.5669 21.5167C67.3402 19.822 68.9469 18.0787 70.6336 18.0787H70.6402Z" fill="#85858F"/>
<path id="Vector_6" d="M61.3383 27.1914H63.9143V9.95337H61.3383V27.1914Z" fill="#85858F"/>
</g>
</svg>
