<svg width="119" height="40" viewBox="0 0 119 40" fill="none" xmlns="http://www.w3.org/2000/svg">
<g id="Uni_aston_logo logo" clip-path="url(#clip0_89_285)">
<path id="path59" d="M3.21449 30.8327C3.21449 27.8506 3.21449 27.3153 3.17617 26.7036C3.13791 26.0536 2.98509 25.7476 2.35428 25.6139C2.20125 25.5759 1.87622 25.5564 1.70423 25.5564C1.62771 25.5564 1.55133 25.5182 1.55133 25.4419C1.55133 25.3272 1.64675 25.2888 1.85713 25.2888C2.71749 25.2888 3.88356 25.3462 4.05562 25.3462C4.22754 25.3462 5.37466 25.2888 5.94826 25.2888C6.15844 25.2888 6.2542 25.3272 6.2542 25.4419C6.2542 25.5182 6.1776 25.5564 6.10115 25.5564C5.96735 25.5564 5.85272 25.5759 5.6231 25.6139C5.10693 25.6904 4.95411 26.0345 4.91578 26.7036C4.87773 27.3153 4.87772 27.8506 4.87772 30.8327V33.5093C4.87772 36.262 5.48945 37.4475 6.31142 38.2309C7.24815 39.1106 8.10838 39.2826 9.19814 39.2826C10.3642 39.2826 11.5112 38.728 12.1994 37.9064C13.0788 36.8163 13.3083 35.1915 13.3083 33.2226V30.8327C13.3083 27.8506 13.3083 27.3153 13.27 26.7036C13.2318 26.0536 13.0788 25.7476 12.4479 25.6139C12.295 25.5759 11.97 25.5564 11.798 25.5564C11.7216 25.5564 11.6451 25.5182 11.6451 25.4419C11.6451 25.3272 11.7407 25.2888 11.951 25.2888C12.8112 25.2888 13.8626 25.3462 13.9774 25.3462C14.1112 25.3462 15.0098 25.2888 15.5831 25.2888C15.7934 25.2888 15.8891 25.3272 15.8891 25.4419C15.8891 25.5182 15.8126 25.5564 15.7361 25.5564C15.6023 25.5564 15.4876 25.5564 15.2582 25.6139C14.7422 25.7095 14.5892 26.0345 14.551 26.7036C14.5126 27.3153 14.5126 27.8506 14.5126 30.8327V32.8783C14.5126 34.9431 14.2832 37.2373 12.7538 38.5944C11.3774 39.8179 9.94366 40.009 8.81583 40.009C8.16573 40.009 6.23489 39.9326 4.87772 38.6517C3.94098 37.7533 3.21449 36.4151 3.21449 33.6238" fill="#85858F"/>
<path id="path61" d="M8.56829 0.1083C5.2488 0.693619 2.88381 3.50752 2.73553 6.73964L13.7001 1.17978C12.2424 0.213093 10.4268 -0.219334 8.56829 0.1083Z" fill="#85858F"/>
<path id="path63" d="M12.8337 13.4516C12.68 13.5247 12.5235 13.5934 12.3634 13.6556C11.9375 13.8209 11.49 13.9482 11.0232 14.0306C7.48708 14.6541 4.10386 12.5312 3.05597 9.19518L12.4819 13.2984L15.7918 3.32617C16.2588 4.07356 16.5944 4.92052 16.757 5.84198C17.3214 9.04382 15.6341 12.1206 12.8337 13.4516Z" fill="#85858F"/>
<path id="path65" d="M5.40082 7.62595L13.2197 3.66138L11.0828 10.0996" fill="#85858F"/>
<path id="path67" d="M30.8577 14.0565C30.985 14.0565 30.985 13.98 30.9598 13.8781L28.5381 6.9956C28.4108 6.61323 28.2833 6.61323 28.1556 6.9956L25.9127 13.8781C25.8616 14.0054 25.9127 14.0565 25.989 14.0565H30.8577ZM28.2066 3.86037C28.5125 3.01918 28.6146 2.86621 28.7675 2.86621C28.9205 2.86621 29.0223 2.99378 29.3282 3.78392C29.7107 4.75249 33.7126 15.2799 35.2675 19.1544C36.1851 21.423 36.9243 21.8309 37.4598 21.9838C37.8421 22.1112 38.2244 22.1368 38.4793 22.1368C38.6322 22.1368 38.7342 22.1622 38.7342 22.2897C38.7342 22.4426 38.5049 22.4937 38.2244 22.4937C37.8421 22.4937 35.9813 22.4937 34.2224 22.4426C33.738 22.4172 33.4577 22.4172 33.4577 22.2643C33.4577 22.1622 33.534 22.1112 33.6361 22.0858C33.789 22.0349 33.942 21.8055 33.789 21.3976L31.4184 15.127C31.3675 15.0251 31.3165 14.9741 31.189 14.9741H25.7087C25.5812 14.9741 25.5049 15.0505 25.4538 15.178L23.9244 19.6897C23.695 20.327 23.5675 20.9387 23.5675 21.3976C23.5675 21.9074 24.1027 22.1368 24.5361 22.1368H24.7911C24.9695 22.1368 25.0459 22.1878 25.0459 22.2897C25.0459 22.4426 24.893 22.4937 24.6636 22.4937C24.0519 22.4937 22.9557 22.4172 22.6755 22.4172C22.3949 22.4172 20.9931 22.4937 19.795 22.4937C19.4636 22.4937 19.3106 22.4426 19.3106 22.2897C19.3106 22.1878 19.4127 22.1368 19.5401 22.1368C19.7184 22.1368 20.0754 22.1112 20.2794 22.0858C21.4519 21.9328 21.9617 20.9644 22.4205 19.6897" fill="#85858F"/>
<path id="path69" d="M41.5498 22.226C41.2822 22.0921 41.2631 22.0159 41.2631 21.4995C41.2631 20.5438 41.3396 19.7791 41.3587 19.473C41.3777 19.2627 41.4161 19.1673 41.5116 19.1673C41.6263 19.1673 41.6453 19.2247 41.6453 19.3776C41.6453 19.5495 41.6453 19.8172 41.7028 20.0848C41.9894 21.4996 43.2513 22.0348 44.5322 22.0348C46.3673 22.0348 47.2659 20.7157 47.2659 19.4923C47.2659 18.1733 46.7114 17.4085 45.0674 16.0513L44.2071 15.3439C42.1808 13.6806 41.722 12.4954 41.722 11.1954C41.722 9.14975 43.2513 7.75439 45.6792 7.75439C46.4248 7.75439 46.9791 7.83084 47.4571 7.94555C47.8202 8.02199 47.9731 8.04123 48.1261 8.04123C48.279 8.04123 48.3172 8.07928 48.3172 8.17496C48.3172 8.27043 48.2408 8.90139 48.2408 10.2013C48.2408 10.5072 48.2025 10.641 48.1071 10.641C47.9923 10.641 47.9731 10.5454 47.9541 10.3925C47.9349 10.1631 47.8202 9.64704 47.7055 9.43665C47.5908 9.22627 47.0748 8.42354 45.3159 8.42354C43.9969 8.42354 42.9646 9.2455 42.9646 10.641C42.9646 11.7306 43.4999 12.3807 45.2968 13.8526L45.8321 14.2734C48.088 16.0513 48.6233 17.2364 48.6233 18.7658C48.6233 19.5495 48.3172 21.0025 46.9983 21.9391C46.1762 22.5128 45.1439 22.7423 44.1116 22.7423C43.2131 22.7423 42.3337 22.6083 41.5498 22.226Z" fill="#85858F"/>
<path id="path71" d="M58.8863 16.9306C58.8863 18.7658 58.8863 20.2761 58.982 21.079C59.0394 21.6333 59.1539 22.0538 59.7275 22.1303C59.9952 22.1687 60.4158 22.2067 60.5877 22.2067C60.7023 22.2067 60.7407 22.2642 60.7407 22.3214C60.7407 22.4171 60.645 22.4745 60.4348 22.4745C59.3833 22.4745 58.1789 22.4171 58.0836 22.4171C57.9879 22.4171 56.7833 22.4745 56.2099 22.4745C55.9996 22.4745 55.9041 22.4362 55.9041 22.3214C55.9041 22.2642 55.9421 22.2067 56.0568 22.2067C56.229 22.2067 56.4584 22.1687 56.6305 22.1303C57.0127 22.0538 57.1084 21.6333 57.185 21.079C57.2805 20.2761 57.2805 18.7658 57.2805 16.9306V8.8441L54.451 8.88215C53.2659 8.90139 52.807 9.03531 52.5012 9.49407C52.291 9.81895 52.2336 9.95269 52.1761 10.0866C52.1189 10.2395 52.0614 10.2778 51.9849 10.2778C51.9276 10.2778 51.8895 10.2205 51.8895 10.1058C51.8895 9.91463 52.2718 8.27043 52.31 8.11753C52.3483 8.00283 52.4247 7.75439 52.5012 7.75439C52.6351 7.75439 52.8263 7.94555 53.3423 7.98374C53.8968 8.04122 54.6232 8.07928 54.8526 8.07928H62.0215C63.2452 8.07928 63.7611 7.88806 63.9142 7.88806C64.0096 7.88806 64.0096 8.00283 64.0096 8.11753C64.0096 8.69119 63.9522 10.0101 63.9522 10.2205C63.9522 10.3925 63.895 10.4689 63.8187 10.4689C63.7228 10.4689 63.6846 10.4116 63.6654 10.144L63.6466 9.93366C63.5701 9.36021 63.1303 8.92041 61.295 8.88215L58.8863 8.8441" fill="#85858F"/>
<path id="path73" d="M74.9249 22.0159C76.6452 22.0159 80.201 21.0218 80.201 15.4584C80.201 10.8705 77.4098 8.4043 74.3893 8.4043C71.1971 8.4043 68.8075 10.5072 68.8075 14.6939C68.8075 19.1482 71.4837 22.0159 74.9249 22.0159ZM74.5236 7.75439C78.8248 7.75439 82.0362 10.4689 82.0362 14.9231C82.0362 19.2054 79.0158 22.7423 74.4087 22.7423C69.1704 22.7423 66.9913 18.6702 66.9913 15.2292C66.9913 12.1322 69.2468 7.75439 74.5236 7.75439Z" fill="#85858F"/>
<path id="path75" d="M88.3226 19.8746C88.3609 21.4421 88.5523 21.9391 89.0684 22.0921C89.4317 22.1878 89.8521 22.2067 90.0242 22.2067C90.1198 22.2067 90.1769 22.2452 90.1769 22.3214C90.1769 22.4362 90.0626 22.4745 89.833 22.4745C88.7435 22.4745 87.9784 22.4171 87.8065 22.4171C87.6345 22.4171 86.8316 22.4745 85.9715 22.4745C85.7801 22.4745 85.6652 22.4554 85.6652 22.3214C85.6652 22.2452 85.7231 22.2067 85.8182 22.2067C85.9715 22.2067 86.3156 22.1878 86.6021 22.0921C87.0805 21.9584 87.1758 21.4039 87.1758 19.6644L87.1948 8.71023C87.1948 7.96478 87.2523 7.75439 87.4052 7.75439C87.5583 7.75439 87.8832 8.17496 88.0742 8.36611C88.3609 8.6912 91.2094 11.769 94.1536 14.9231C96.0463 16.9497 98.1299 19.2818 98.7416 19.9128L98.5311 10.2013C98.512 8.95867 98.3784 8.53803 97.7855 8.38534C97.4416 8.30889 97.0018 8.2896 96.8489 8.2896C96.7153 8.2896 96.6961 8.23218 96.6961 8.15593C96.6961 8.04123 96.8489 8.022 97.0784 8.022C97.939 8.022 98.8564 8.07928 99.0665 8.07928C99.2767 8.07928 99.9077 8.022 100.692 8.022C100.902 8.022 101.036 8.04123 101.036 8.15593C101.036 8.23218 100.959 8.2896 100.825 8.2896C100.73 8.2896 100.596 8.2896 100.367 8.34688C99.7355 8.48082 99.6594 8.90139 99.6594 10.0484L99.621 21.251C99.621 22.5128 99.5828 22.6083 99.4487 22.6083C99.296 22.6083 99.0665 22.398 98.0533 21.3847C97.8429 21.1937 95.0902 18.3833 93.064 16.2042C90.8465 13.8146 88.6862 11.4057 88.0742 10.7175" fill="#85858F"/>
<path id="path77" d="M20.1624 37.9892C20.1878 39.0343 20.3154 39.3653 20.6594 39.4674C20.9015 39.5313 21.1817 39.5437 21.2964 39.5437C21.3602 39.5437 21.3985 39.5691 21.3985 39.6202C21.3985 39.6966 21.322 39.7221 21.1691 39.7221C20.4426 39.7221 19.9328 39.6838 19.8183 39.6838C19.7036 39.6838 19.1683 39.7221 18.5948 39.7221C18.4673 39.7221 18.3908 39.7095 18.3908 39.6202C18.3908 39.5691 18.4292 39.5437 18.4928 39.5437C18.5948 39.5437 18.8242 39.5313 19.0154 39.4674C19.334 39.3782 19.3976 39.0085 19.3976 37.8489L19.4105 30.5464C19.4105 30.0496 19.4487 29.9094 19.5506 29.9094C19.6526 29.9094 19.8692 30.1897 19.9967 30.3172C20.1878 30.5336 22.0866 32.5855 24.0494 34.6883C25.3111 36.0391 26.7 37.5939 27.108 38.0146L26.9676 31.5404C26.9549 30.7119 26.8657 30.4317 26.4708 30.3298C26.2412 30.2788 25.9482 30.2661 25.8463 30.2661C25.757 30.2661 25.7442 30.2279 25.7442 30.1769C25.7442 30.1002 25.8463 30.0878 25.999 30.0878C26.5727 30.0878 27.1843 30.126 27.3244 30.126C27.4647 30.126 27.8852 30.0878 28.4077 30.0878C28.548 30.0878 28.6371 30.1002 28.6371 30.1769C28.6371 30.2279 28.5861 30.2661 28.497 30.2661C28.4332 30.2661 28.3441 30.2661 28.1911 30.3044C27.7705 30.3936 27.7195 30.6739 27.7195 31.4386L27.6941 38.9066C27.6941 39.7477 27.6687 39.8114 27.5794 39.8114C27.4775 39.8114 27.3244 39.6714 26.6492 38.9959C26.5089 38.8684 24.6739 36.995 23.3229 35.542C21.8446 33.9493 20.4046 32.3435 19.9967 31.8845" fill="#85858F"/>
<path id="path79" d="M35.7598 36.0266C35.7598 37.2499 35.7598 38.257 35.8236 38.7922C35.8619 39.1617 35.9383 39.4419 36.3205 39.4928C36.499 39.5185 36.7793 39.5438 36.894 39.5438C36.9706 39.5438 36.9961 39.582 36.9961 39.6203C36.9961 39.6839 36.9324 39.7222 36.7921 39.7222C36.0913 39.7222 35.2883 39.6839 35.2247 39.6839C35.161 39.6839 34.358 39.7222 33.9757 39.7222C33.8355 39.7222 33.7718 39.6967 33.7718 39.6203C33.7718 39.582 33.7973 39.5438 33.8737 39.5438C33.9885 39.5438 34.1414 39.5185 34.2559 39.4928C34.5109 39.4419 34.5746 39.1617 34.6256 38.7922C34.6893 38.257 34.6893 37.2499 34.6893 36.0266V33.7837C34.6893 31.7954 34.6893 31.4387 34.6638 31.0309C34.6384 30.5977 34.5109 30.3809 34.2307 30.3173C34.0906 30.2789 33.9248 30.2662 33.8355 30.2662C33.7845 30.2662 33.7336 30.2406 33.7336 30.1898C33.7336 30.1133 33.7973 30.0879 33.9374 30.0879C34.358 30.0879 35.161 30.1261 35.2247 30.1261C35.2883 30.1261 36.0913 30.0879 36.4736 30.0879C36.6139 30.0879 36.6773 30.1133 36.6773 30.1898C36.6773 30.2406 36.6265 30.2662 36.5755 30.2662C36.4862 30.2662 36.4097 30.2789 36.2568 30.3045C35.9127 30.3681 35.8108 30.5849 35.7854 31.0309C35.7598 31.4387 35.7598 31.7954 35.7598 33.7837" fill="#85858F"/>
<path id="path81" d="M45.866 38.1674C46.6052 36.46 48.3129 32.0122 48.5932 31.0946C48.6568 30.9034 48.7079 30.725 48.7079 30.6102C48.7079 30.5083 48.6696 30.3809 48.5421 30.3173C48.3892 30.2662 48.198 30.2662 48.0581 30.2662C47.9814 30.2662 47.9178 30.2534 47.9178 30.1898C47.9178 30.1133 47.9942 30.0879 48.198 30.0879C48.7079 30.0879 49.2942 30.1261 49.4471 30.1261C49.5235 30.1261 50.0716 30.0879 50.441 30.0879C50.5815 30.0879 50.6577 30.1133 50.6577 30.177C50.6577 30.2406 50.6067 30.2662 50.5048 30.2662C50.4157 30.2662 50.1352 30.2662 49.8931 30.4192C49.7273 30.5337 49.5362 30.7505 49.1921 31.617C49.052 31.974 48.4148 33.5034 47.765 35.0707C46.9875 36.9314 46.414 38.3077 46.121 38.9321C45.7641 39.6967 45.7131 39.9008 45.5858 39.9008C45.4327 39.9008 45.3689 39.7222 45.1268 39.1106L42.0045 31.2985C41.7242 30.5849 41.5331 30.4446 41.0869 30.3173C40.8957 30.2662 40.6789 30.2662 40.6026 30.2662C40.5262 30.2662 40.5008 30.228 40.5008 30.177C40.5008 30.1003 40.6281 30.0879 40.832 30.0879C41.4438 30.0879 42.1702 30.1261 42.3231 30.1261C42.4507 30.1261 43.024 30.0879 43.5084 30.0879C43.7378 30.0879 43.8524 30.1133 43.8524 30.177C43.8524 30.2406 43.814 30.2662 43.7249 30.2662C43.5846 30.2662 43.3554 30.2789 43.2407 30.3299C43.1004 30.3937 43.075 30.4957 43.075 30.5849C43.075 30.7505 43.2279 31.1454 43.4191 31.6424" fill="#85858F"/>
<path id="path83" d="M55.361 33.7836C55.361 31.7953 55.361 31.4386 55.3354 31.0307C55.31 30.5976 55.2081 30.3936 54.7875 30.3044C54.6854 30.2788 54.4689 30.2661 54.3542 30.2661C54.3031 30.2661 54.2523 30.2405 54.2523 30.1897C54.2523 30.1131 54.3161 30.0878 54.456 30.0878C55.0295 30.0878 55.8325 30.1259 55.8962 30.1259C55.9854 30.1259 58.5216 30.1259 58.8144 30.1131C59.0568 30.1002 59.2608 30.075 59.3629 30.0496C59.4265 30.0365 59.4772 29.9858 59.541 29.9858C59.5792 29.9858 59.5919 30.0365 59.5919 30.1002C59.5919 30.1897 59.5284 30.3426 59.4898 30.6995C59.4772 30.8268 59.4519 31.3876 59.4265 31.5404C59.4137 31.6042 59.3877 31.6807 59.3372 31.6807C59.2608 31.6807 59.2353 31.6168 59.2353 31.5149C59.2353 31.4257 59.2224 31.2093 59.1589 31.0564C59.0696 30.8524 58.9419 30.6995 58.2539 30.623C58.0373 30.5976 56.6481 30.5848 56.508 30.5848C56.457 30.5848 56.4315 30.623 56.4315 30.7119V34.2295C56.4315 34.319 56.4444 34.357 56.508 34.357C56.6734 34.357 58.2413 34.357 58.5339 34.3314C58.84 34.3059 59.0184 34.2805 59.1331 34.153C59.2224 34.0512 59.2734 33.9873 59.3244 33.9873C59.3629 33.9873 59.3877 34.0129 59.3877 34.0892C59.3877 34.1657 59.3244 34.3826 59.286 34.803C59.2608 35.058 59.2353 35.5294 59.2353 35.6185C59.2353 35.7204 59.2353 35.8605 59.1459 35.8605C59.0822 35.8605 59.0568 35.8099 59.0568 35.7462C59.0568 35.6185 59.0568 35.4912 59.0058 35.3255C58.9547 35.1471 58.84 34.9305 58.3432 34.8795C57.9989 34.8411 56.7372 34.8157 56.5206 34.8157C56.457 34.8157 56.4315 34.8539 56.4315 34.9051V36.0264C56.4315 36.4599 56.4187 37.9383 56.4315 38.2058C56.4696 39.0849 56.6609 39.2504 57.9098 39.2504C58.2413 39.2504 58.8019 39.2505 59.1331 39.1105C59.4645 38.9704 59.6175 38.7154 59.7067 38.1929C59.7322 38.0526 59.7574 38.0015 59.8213 38.0015C59.8977 38.0015 59.8977 38.1037 59.8977 38.1929C59.8977 38.295 59.7958 39.1615 59.7322 39.4292C59.6429 39.7603 59.541 39.7603 59.0438 39.7603C57.1196 39.7603 56.2658 39.6838 55.8962 39.6838C55.8325 39.6838 55.0295 39.7221 54.6474 39.7221C54.5071 39.7221 54.4434 39.6966 54.4434 39.6202C54.4434 39.5819 54.4689 39.5437 54.5453 39.5437C54.66 39.5437 54.8129 39.5183 54.9276 39.4927C55.1825 39.4418 55.2461 39.1615 55.2971 38.7921C55.361 38.2568 55.361 37.2497 55.361 36.0264" fill="#85858F"/>
<path id="path85" d="M66.9574 34.8925C66.9574 34.9561 66.983 35.007 67.0465 35.0451C67.2378 35.1598 67.824 35.249 68.3848 35.249C68.6907 35.249 69.0476 35.2108 69.3405 35.007C69.7864 34.7013 70.1177 34.0131 70.1177 33.0444C70.1177 31.4515 69.2768 30.4957 67.9132 30.4957C67.5307 30.4957 67.1872 30.5337 67.0595 30.5721C66.9954 30.5977 66.9574 30.6486 66.9574 30.725V34.8925ZM65.9381 33.7837C65.9381 31.7954 65.9381 31.4387 65.9123 31.0309C65.8869 30.5977 65.7848 30.3937 65.3644 30.3045C65.2623 30.2789 65.0456 30.2662 64.9311 30.2662C64.8802 30.2662 64.8292 30.2406 64.8292 30.1898C64.8292 30.1133 64.893 30.0879 65.0331 30.0879C65.6062 30.0879 66.4093 30.1261 66.4734 30.1261C66.6135 30.1261 67.582 30.0879 67.9769 30.0879C68.7799 30.0879 69.6337 30.1643 70.3091 30.6485C70.6275 30.878 71.1884 31.5023 71.1884 32.3819C71.1884 33.3247 70.7931 34.2679 69.6463 35.3256C70.6914 36.6637 71.5581 37.7978 72.2972 38.5881C72.9856 39.3144 73.5332 39.4545 73.8518 39.5058C74.094 39.5438 74.2725 39.5438 74.3488 39.5438C74.4126 39.5438 74.4635 39.582 74.4635 39.6203C74.4635 39.6967 74.3874 39.7222 74.1578 39.7222H73.253C72.5393 39.7222 72.2208 39.6583 71.8894 39.4804C71.3412 39.1869 70.8952 38.5624 70.169 37.6068C69.6337 36.9058 69.0346 36.052 68.7799 35.7205C68.7287 35.6697 68.6907 35.6443 68.614 35.6443L67.0465 35.6187C66.983 35.6187 66.9574 35.6571 66.9574 35.7205V36.0266C66.9574 37.2499 66.9574 38.257 67.0212 38.7922C67.0595 39.1617 67.1359 39.4419 67.5181 39.4928C67.6967 39.5185 67.9769 39.5438 68.0916 39.5438C68.1682 39.5438 68.1935 39.582 68.1935 39.6203C68.1935 39.6839 68.1298 39.7222 67.9895 39.7222C67.2889 39.7222 66.4858 39.6839 66.4221 39.6839C66.4093 39.6839 65.6062 39.7222 65.2241 39.7222C65.0842 39.7222 65.0201 39.6967 65.0201 39.6203C65.0201 39.582 65.0456 39.5438 65.1224 39.5438C65.2369 39.5438 65.3898 39.5185 65.5045 39.4928C65.7595 39.4419 65.8231 39.1617 65.8738 38.7922C65.9381 38.257 65.9381 37.2499 65.9381 36.0266" fill="#85858F"/>
<path id="path87" d="M77.535 39.5565C77.3565 39.4674 77.3437 39.4164 77.3437 39.0721C77.3437 38.4349 77.3947 37.9251 77.4076 37.7213C77.4206 37.5812 77.4458 37.5174 77.5097 37.5174C77.5859 37.5174 77.599 37.5558 77.599 37.6577C77.599 37.7724 77.599 37.9508 77.6371 38.1291C77.8283 39.0721 78.6694 39.4292 79.5234 39.4292C80.7465 39.4292 81.3457 38.5498 81.3457 37.7343C81.3457 36.8548 80.9757 36.3452 79.8801 35.4404L79.3064 34.9688C77.9556 33.8598 77.6495 33.0697 77.6495 32.2032C77.6495 30.8396 78.6694 29.9094 80.2876 29.9094C80.7847 29.9094 81.1542 29.9603 81.4729 30.0365C81.7151 30.0878 81.8171 30.1002 81.919 30.1002C82.021 30.1002 82.0464 30.126 82.0464 30.1897C82.0464 30.2533 81.9957 30.6739 81.9957 31.5404C81.9957 31.7446 81.9699 31.8335 81.9064 31.8335C81.8297 31.8335 81.8171 31.77 81.8043 31.6681C81.7915 31.515 81.7151 31.171 81.6384 31.0307C81.5623 30.8906 81.2182 30.3552 80.0456 30.3552C79.1665 30.3552 78.4783 30.9032 78.4783 31.8335C78.4783 32.5601 78.835 32.9935 80.0328 33.9747L80.3895 34.2548C81.8936 35.4404 82.2506 36.2303 82.2506 37.2498C82.2506 37.7724 82.0464 38.7409 81.1672 39.3653C80.6192 39.7477 79.9309 39.9007 79.2426 39.9007C78.644 39.9007 78.0574 39.8114 77.535 39.5565Z" fill="#85858F"/>
<path id="path89" d="M89.4879 36.0266C89.4879 37.2499 89.4879 38.257 89.5517 38.7922C89.5899 39.1617 89.6662 39.4419 90.0485 39.4928C90.2271 39.5185 90.5071 39.5438 90.622 39.5438C90.6985 39.5438 90.7241 39.582 90.7241 39.6203C90.7241 39.6839 90.6602 39.7222 90.5199 39.7222C89.8191 39.7222 89.0164 39.6839 88.9524 39.6839C88.8887 39.6839 88.0859 39.7222 87.7035 39.7222C87.5634 39.7222 87.4998 39.6967 87.4998 39.6203C87.4998 39.582 87.5251 39.5438 87.6019 39.5438C87.7165 39.5438 87.8695 39.5185 87.984 39.4928C88.239 39.4419 88.3026 39.1617 88.3535 38.7922C88.4171 38.257 88.4171 37.2499 88.4171 36.0266V33.7837C88.4171 31.7954 88.4171 31.4387 88.3917 31.0309C88.3665 30.5977 88.239 30.3809 87.9587 30.3173C87.8184 30.2789 87.6528 30.2662 87.5634 30.2662C87.5125 30.2662 87.4614 30.2406 87.4614 30.1898C87.4614 30.1133 87.5251 30.0879 87.6653 30.0879C88.0859 30.0879 88.8887 30.1261 88.9524 30.1261C89.0164 30.1261 89.8191 30.0879 90.2015 30.0879C90.3416 30.0879 90.4054 30.1133 90.4054 30.1898C90.4054 30.2406 90.3543 30.2662 90.3035 30.2662C90.2143 30.2662 90.1376 30.2789 89.9847 30.3045C89.6406 30.3681 89.5389 30.5849 89.5135 31.0309C89.4879 31.4387 89.4879 31.7954 89.4879 33.7837" fill="#85858F"/>
<path id="path91" d="M99.5432 36.0265C99.5432 37.2498 99.5432 38.2568 99.6068 38.7921C99.6448 39.1616 99.7217 39.4418 100.104 39.4927C100.282 39.5183 100.563 39.5437 100.677 39.5437C100.754 39.5437 100.779 39.5819 100.779 39.6202C100.779 39.6838 100.716 39.7221 100.575 39.7221C99.8744 39.7221 99.0713 39.6838 99.0081 39.6838C98.9438 39.6838 98.1413 39.7221 97.7588 39.7221C97.6187 39.7221 97.555 39.6966 97.555 39.6202C97.555 39.5819 97.5806 39.5437 97.6569 39.5437C97.7716 39.5437 97.9245 39.5183 98.039 39.4927C98.294 39.4418 98.3577 39.1616 98.4088 38.7921C98.4724 38.2568 98.4724 37.2498 98.4724 36.0265V30.6356L96.5864 30.6613C95.7963 30.6739 95.4905 30.7631 95.2865 31.0689C95.1464 31.2854 95.1081 31.3749 95.0701 31.464C95.0316 31.5662 94.9934 31.5915 94.9426 31.5915C94.9043 31.5915 94.8787 31.5532 94.8787 31.4768C94.8787 31.3493 95.1333 30.2533 95.1592 30.1514C95.1847 30.075 95.2356 29.9094 95.2865 29.9094C95.3758 29.9094 95.5031 30.0365 95.8472 30.0621C96.2169 30.1002 96.7011 30.126 96.8541 30.126H101.633C102.448 30.126 102.793 29.9983 102.895 29.9983C102.958 29.9983 102.958 30.075 102.958 30.1514C102.958 30.5336 102.92 31.4131 102.92 31.5532C102.92 31.6681 102.882 31.7188 102.831 31.7188C102.767 31.7188 102.742 31.6807 102.729 31.5022L102.716 31.3621C102.666 30.9798 102.372 30.6867 101.149 30.6613L99.5432 30.6356" fill="#85858F"/>
<path id="path93" d="M109.656 34.7901C109.656 33.7577 109.465 33.3372 109.216 32.7828C109.082 32.477 106.521 28.271 105.852 27.2771C105.374 26.5697 104.896 26.0919 104.551 25.8623C104.265 25.6711 103.901 25.5564 103.729 25.5564C103.634 25.5564 103.538 25.5182 103.538 25.4228C103.538 25.3462 103.615 25.2888 103.787 25.2888C104.15 25.2888 105.584 25.3462 105.679 25.3462C105.813 25.3462 106.54 25.2888 107.285 25.2888C107.496 25.2888 107.534 25.3462 107.534 25.4228C107.534 25.4993 107.419 25.5182 107.247 25.5949C107.094 25.6711 106.998 25.786 106.998 25.939C106.998 26.1681 107.094 26.3977 107.247 26.6846C107.553 27.2389 110.421 32.1709 110.765 32.7254C111.128 31.9225 113.556 27.7359 113.938 27.105C114.187 26.7036 114.263 26.3786 114.263 26.1301C114.263 25.8623 114.187 25.6521 113.957 25.5949C113.785 25.5374 113.67 25.4993 113.67 25.4037C113.67 25.3272 113.785 25.2888 113.976 25.2888C114.474 25.2888 115.085 25.3462 115.238 25.3462C115.353 25.3462 116.729 25.2888 117.092 25.2888C117.226 25.2888 117.341 25.3272 117.341 25.4037C117.341 25.4993 117.245 25.5564 117.092 25.5564C116.882 25.5564 116.519 25.6331 116.213 25.8241C115.831 26.0536 115.621 26.2828 115.2 26.7993C114.569 27.564 111.893 32.0562 111.548 32.8783C111.262 33.5667 111.262 34.1593 111.262 34.7901V36.4343C111.262 36.7399 111.262 37.5429 111.319 38.3462C111.357 38.9004 111.529 39.3209 112.103 39.3975C112.37 39.4356 112.791 39.4738 112.963 39.4738C113.078 39.4738 113.116 39.531 113.116 39.5885C113.116 39.6839 113.021 39.7414 112.81 39.7414C111.759 39.7414 110.554 39.6839 110.459 39.6839C110.363 39.6839 109.159 39.7414 108.585 39.7414C108.375 39.7414 108.279 39.7032 108.279 39.5885C108.279 39.531 108.317 39.4738 108.432 39.4738C108.604 39.4738 108.834 39.4356 109.006 39.3975C109.388 39.3209 109.56 38.9004 109.598 38.3462C109.656 37.5429 109.656 36.7399 109.656 36.4343" fill="#85858F"/>
</g>
<defs>
<clipPath id="clip0_89_285">
<rect width="118.421" height="40" fill="white" transform="translate(0.235535)"/>
</clipPath>
</defs>
</svg>
