<svg width="210" height="40" viewBox="0 0 210 40" fill="none" xmlns="http://www.w3.org/2000/svg">
<g id="Miami_University_logo logo" clip-path="url(#clip0_89_261)">
<g id="XMLID_5_">
<path id="XMLID_28_" d="M79.7123 22.3022H73.3814V22.4461C73.9569 22.7339 75.2519 23.1656 75.5397 23.4533C75.8274 23.885 75.8274 24.4605 75.8274 24.7483V33.5253C75.8274 37.1224 73.0936 39.1368 70.2159 38.849C67.4821 38.4174 65.6116 36.9785 65.6116 33.2375V24.6044C65.6116 24.0289 65.6116 23.7411 65.8994 23.3094C66.1871 22.8778 67.4821 22.7339 68.0576 22.4461V22.3022H61.295V22.4461C61.8706 22.59 63.1655 23.0217 63.3094 23.3094C63.5972 23.7411 63.5972 24.3166 63.5972 24.6044V33.0936C63.5972 37.9857 66.7627 40.0001 70.2159 40.0001C73.813 40.0001 77.1224 38.2735 77.1224 32.8058V25.4677C77.1224 25.1799 77.1224 23.7411 77.4102 23.3094C77.6979 22.8778 78.849 22.59 79.5684 22.3022H79.7123Z" fill="#85858F"/>
<path id="XMLID_27_" d="M129.353 22.3023H123.597V22.4462C124.173 22.5901 125.324 23.1656 125.468 23.4534C125.468 23.5973 125.468 24.3167 125.18 24.7484L120.863 36.5469L116.115 24.7484C115.971 24.3167 115.684 23.5973 115.827 23.3095C115.971 22.8779 117.122 22.4462 117.554 22.3023V22.1584H111.367V22.3023C112.086 22.5901 113.094 23.0218 113.381 23.4534C113.525 23.8851 113.669 24.1728 113.813 24.6045C114.389 26.0433 118.274 35.252 119.281 38.2736C119.425 38.8491 119.712 39.1369 119.856 39.7124H121.007C121.151 38.993 121.295 38.5613 121.583 37.8419C122.015 36.5469 125.899 25.4678 126.475 24.3167C126.619 23.8851 126.763 23.5973 127.051 23.1656C127.338 22.734 128.633 22.4462 129.209 22.1584L129.353 22.3023Z" fill="#85858F"/>
<path id="XMLID_26_" d="M142.158 36.403H141.871C141.583 37.1224 141.295 38.2735 140.863 38.4174C140.576 38.5612 140.288 38.4174 139.856 38.4174H135.971C135.54 38.4174 135.252 38.4174 134.82 38.2735C134.533 38.1296 134.389 37.4102 134.389 37.1224V31.367H137.842C138.417 31.367 138.705 31.367 139.137 31.6548C139.569 31.9425 139.712 32.8058 140 33.3814H140.144V28.3454H140L139.712 29.3526C139.569 29.6404 139.425 29.7843 139.281 29.9281C138.993 30.2159 138.417 30.2159 137.842 30.2159H134.533V24.6044C134.533 24.1728 134.533 23.7411 134.676 23.5972C134.964 23.3094 135.396 23.4533 135.828 23.4533H138.705C139.137 23.4533 139.712 23.4533 140.144 23.7411C140.576 24.0289 140.863 25.0361 141.151 25.6116H141.295V22.3022H130.072V22.4461C130.648 22.59 132.087 23.0217 132.23 23.3094C132.518 23.7411 132.518 24.0289 132.518 24.6044V37.2663C132.518 37.6979 132.518 38.2735 132.23 38.5612C131.943 38.849 130.648 39.2807 130.072 39.4245V39.5684H142.015L142.158 36.403Z" fill="#85858F"/>
<path id="XMLID_23_" d="M160.432 39.8563L159.856 39.5685C158.561 38.993 158.417 38.7052 157.554 37.9858C156.259 36.8347 155.54 35.9714 154.389 34.5325L151.799 31.6548L152.23 31.511C153.669 31.0793 156.403 30.216 156.403 27.0505C156.403 23.885 153.957 22.3023 151.799 22.1584C150.36 22.0145 149.497 22.1584 148.202 22.1584H144.461V22.3023C145.18 22.5901 146.331 22.8779 146.619 23.3095C146.907 23.5973 146.907 24.0289 146.907 24.4606V37.1225C146.907 37.5541 146.907 38.1297 146.619 38.4174C146.475 38.7052 145.036 39.1369 144.461 39.2807V39.4246H151.367V39.2807C150.648 38.993 149.497 38.8491 149.209 38.4174C148.921 37.9858 148.921 37.698 148.921 37.1225V31.511H149.497L152.95 35.1081C154.533 36.8347 156.259 38.8491 157.266 39.2807C158.13 39.5685 159.137 39.8563 159.569 39.7124L160.432 39.8563ZM154.533 26.7627C154.676 29.2088 152.662 30.7915 150.072 30.7915H148.921V24.4606C148.921 24.0289 148.921 23.7412 149.209 23.4534C149.497 23.3095 150.504 23.1656 151.223 23.3095C152.662 23.3095 154.389 24.7484 154.533 26.7627Z" fill="#85858F"/>
<path id="XMLID_22_" d="M170.072 35.1078C170.072 32.2301 167.482 31.079 164.892 29.784C163.885 29.3524 161.727 28.3452 161.727 26.4747C161.727 24.6042 163.31 23.0214 165.324 23.1653C166.763 23.1653 167.626 23.4531 168.058 24.6042L168.921 26.6186H169.065V22.4459L168.633 22.302C167.914 22.1581 166.763 21.8704 165.468 21.8704C162.734 21.8704 160 23.7409 160.144 26.7624C160.288 29.6401 162.015 30.3596 164.461 31.6545C166.331 32.6617 168.202 33.3812 168.346 35.3955C168.489 37.4099 166.475 38.8488 164.317 38.561C163.166 38.4171 161.727 38.1294 161.295 36.6905L160.72 35.1078H160.576L160.72 38.9927L161.727 39.2804C162.302 39.4243 163.453 39.7121 164.605 39.7121C167.77 39.856 170.072 38.2732 170.072 35.1078Z" fill="#85858F"/>
<path id="XMLID_21_" d="M193.525 26.475V22.1584H180.288V26.3311H180.576C180.863 25.4678 181.151 23.8851 181.583 23.5973C181.727 23.4534 182.014 23.4534 182.158 23.4534H185.755V37.1225C185.755 37.5541 185.899 38.1297 185.468 38.4174C185.18 38.7052 183.885 39.1369 183.309 39.2808V39.4246H190.216V39.2808C189.496 38.993 188.345 38.8491 188.058 38.4174C187.77 37.9858 187.77 37.698 187.77 37.1225V23.3095H190.935C191.367 23.3095 191.655 23.3095 192.086 23.4534C192.662 23.5973 193.094 25.6117 193.381 26.3311L193.525 26.475Z" fill="#85858F"/>
<path id="XMLID_20_" d="M101.151 22.3023V22.4462C100.576 22.734 99.7124 23.0218 99.4246 23.3095C99.1369 23.5973 99.1369 26.3311 99.1369 26.3311V39.7124H97.9858C95.5397 36.9786 95.252 36.5469 94.9642 36.2592C94.8203 36.1153 94.5325 35.8275 93.957 35.252C90.216 31.3671 86.475 26.7628 85.0361 25.3239V35.5397C85.0361 36.1153 84.8922 37.8419 85.3239 38.5613C85.4678 38.993 86.475 39.2808 87.0505 39.4246V39.5685H81.7268V39.4246C82.4462 39.1369 83.1656 38.8491 83.4534 38.4174C83.5973 37.9858 83.5973 36.4031 83.5973 35.3959V24.029C83.5973 23.7412 83.4534 23.4534 83.3095 23.1656C83.0217 22.734 81.7268 22.5901 81.1512 22.3023V22.1584H85.0361C85.3239 22.5901 85.7556 23.1656 86.6189 24.029C90.6476 28.2016 96.6908 35.3959 97.698 36.2592V26.3311C97.698 25.18 97.698 23.7412 97.5541 23.3095C97.2664 22.8779 96.403 22.5901 95.8275 22.3023V22.1584H101.151V22.3023Z" fill="#85858F"/>
<g id="XMLID_18_">
<path id="XMLID_19_" d="M110.647 39.5684C109.928 39.2807 108.777 39.1368 108.489 38.7051C108.201 38.2735 108.201 37.9857 108.201 37.4102V24.6044C108.201 24.0289 108.201 23.7411 108.489 23.3094C108.777 22.8778 110.072 22.7339 110.647 22.4461V22.3022H103.597V22.4461C104.173 22.59 105.611 23.0217 105.755 23.3094C106.043 23.7411 106.043 24.3166 106.043 24.6044V37.2663C106.043 37.6979 106.187 38.2735 105.755 38.5612C105.468 38.849 104.173 39.2807 103.597 39.4245V39.5684H110.647Z" fill="#85858F"/>
</g>
<g id="XMLID_16_">
<path id="XMLID_17_" d="M199.568 24.6044L202.302 29.6404L205.036 24.8922C205.324 24.3166 205.755 23.5972 205.611 23.4533C205.468 23.0217 204.892 22.8778 203.741 22.4461V22.3022H209.64V22.4461C208.921 22.7339 208.058 22.8778 207.338 23.4533C207.05 23.7411 206.763 24.3166 206.475 24.7483L203.022 30.6476V37.2663C203.022 37.8418 203.022 38.1296 203.309 38.5612C203.597 38.9929 205.036 39.1368 205.611 39.4245V39.5684H198.417V39.4245C198.993 39.2807 200.432 38.849 200.719 38.5612C201.007 38.1296 201.007 37.554 201.007 37.2663V31.367L197.41 24.7483C197.122 24.1728 196.835 23.7411 196.547 23.4533C195.827 22.7339 194.964 22.7339 194.245 22.4461V22.3022H200.863V22.4461C199.712 22.8778 199.137 23.0217 198.993 23.4533C199.137 23.5972 199.424 24.0289 199.568 24.6044Z" fill="#85858F"/>
</g>
<g id="XMLID_14_">
<path id="XMLID_15_" d="M178.705 39.5684C177.986 39.2807 176.835 39.1368 176.547 38.7051C176.259 38.2735 176.259 37.9857 176.259 37.4102V24.6044C176.259 24.0289 176.259 23.7411 176.547 23.3094C176.835 22.8778 178.13 22.7339 178.705 22.4461V22.3022H171.799V22.4461C172.374 22.59 173.813 23.0217 173.957 23.3094C174.245 23.7411 174.245 24.3166 174.245 24.6044V37.2663C174.245 37.6979 174.389 38.2735 173.957 38.5612C173.669 38.849 172.374 39.2807 171.799 39.4245V39.5684H178.705Z" fill="#85858F"/>
</g>
<g id="XMLID_6_">
<path id="XMLID_13_" d="M95.9712 17.6978V17.5539C95.2518 17.2661 94.1007 17.1222 93.8129 16.6906C93.5252 16.2589 93.5252 15.9711 93.5252 15.3956V2.44596C93.5252 1.87042 93.5252 1.58265 93.8129 1.15099C94.1007 0.719338 95.3957 0.575454 95.9712 0.287684V0.143799H88.9208V0.287684C89.4964 0.431569 90.9352 0.863223 91.0791 1.15099C91.3669 1.58265 91.3669 2.15819 91.3669 2.58984V15.3956C91.3669 15.8273 91.5108 16.4028 91.0791 16.8344C90.7913 17.1222 89.4964 17.5539 88.9208 17.6978V17.8416H95.9712V17.6978Z" fill="#85858F"/>
<path id="XMLID_12_" d="M64.7482 2.58993C64.7482 2.15827 64.7482 1.58273 64.4604 1.15108C64.1726 0.863309 62.8777 0.431655 62.3021 0.28777V0.143885H64.7482H66.187C66.3309 0.57554 66.6187 1.58273 66.9065 2.15827C68.4892 5.46763 73.0935 13.2374 73.8129 14.2446C74.964 12.2302 77.5539 7.33813 80 2.8777C80.5755 1.8705 80.8633 1.15108 81.2949 0H85.3237V0.143885C84.6043 0.431655 83.4532 0.57554 83.1654 1.00719C82.8777 1.29496 82.8777 1.72662 82.8777 2.15827C82.8777 2.58993 82.8777 3.02158 83.0216 3.45324C83.4532 7.91367 84.0288 14.8201 84.0288 14.8201C84.0288 15.3957 84.1726 15.9712 84.3165 16.259C84.4604 16.6906 85.6115 16.9784 86.3309 17.2662V17.4101H80V17.2662C80.5755 17.1223 81.5827 16.6906 81.8705 16.4029C82.3021 15.5396 82.1583 14.964 82.0144 14.3885L81.0072 3.59712C80 5.32374 76.6906 11.3669 75.1079 14.3885C74.5324 15.5396 73.669 17.2662 73.5252 17.554C73.3813 17.2662 72.6619 15.9712 72.2302 15.1079C68.777 8.63309 66.3309 4.89209 65.8993 4.02878L65.1798 13.0935C65.1798 13.6691 64.8921 15.3957 65.3237 16.1151C65.6115 16.5468 66.4748 16.6906 67.0503 16.9784V17.1223H61.8705V16.9784C62.5899 16.6906 63.4532 16.4029 63.741 15.9712C63.8849 15.5396 64.0288 14.2446 64.0288 13.0935C64.4604 10.3597 64.6043 5.7554 64.7482 3.88489C64.7482 3.45324 64.7482 3.02158 64.7482 2.58993Z" fill="#85858F"/>
<path id="XMLID_11_" d="M118.993 2.58993C118.993 2.15827 118.993 1.58273 118.705 1.15108C118.417 0.863309 117.122 0.431655 116.547 0.28777V0.143885H118.993H120.432C120.576 0.57554 120.863 1.58273 121.151 2.15827C122.734 5.46763 127.338 13.2374 128.058 14.2446C129.209 12.2302 131.799 7.33813 134.245 2.8777C134.82 1.8705 135.108 1.15108 135.54 0H139.568V0.143885C138.849 0.431655 137.698 0.57554 137.41 1.00719C137.122 1.29496 137.122 1.72662 137.122 2.15827C137.122 2.58993 137.122 3.02158 137.266 3.45324C137.698 7.91367 138.273 14.8201 138.273 14.8201C138.273 15.3957 138.417 15.9712 138.561 16.259C138.705 16.6906 139.856 16.9784 140.576 17.2662V17.4101H134.245V17.2662C134.82 17.1223 135.827 16.6906 136.115 16.4029C136.547 15.5396 136.403 14.964 136.259 14.3885L135.252 3.88489C134.245 5.61151 130.935 11.6547 129.353 14.6763C128.777 15.8273 127.914 17.554 127.77 17.8417C127.626 17.554 126.907 16.259 126.475 15.3957C123.022 8.92086 120.576 5.17986 120.144 4.31655L119.424 13.5252C119.424 14.1007 119.137 15.8273 119.568 16.5468C119.856 16.9784 120.719 17.1223 121.295 17.4101V17.554H115.971V17.4101C116.691 17.1223 117.554 16.8345 117.842 16.4029C117.986 15.9712 118.13 14.6763 118.13 13.5252C118.561 10.2158 118.705 5.61151 118.849 3.74101C118.849 3.45324 118.849 3.02158 118.993 2.58993Z" fill="#85858F"/>
<path id="XMLID_10_" d="M150.072 17.6978V17.5539C149.352 17.2661 148.201 17.1222 147.913 16.6906C147.626 16.2589 147.626 15.9711 147.626 15.3956V2.44596C147.626 1.87042 147.626 1.58265 147.913 1.15099C148.201 0.719338 149.496 0.575454 150.072 0.287684V0.143799H143.021V0.287684C143.597 0.431569 145.036 0.863223 145.18 1.15099C145.467 1.58265 145.467 2.15819 145.467 2.58984V15.3956C145.467 15.8273 145.611 16.4028 145.18 16.8344C144.892 17.1222 143.597 17.5539 143.021 17.6978V17.8416H150.072V17.6978Z" fill="#85858F"/>
<path id="XMLID_7_" d="M107.913 9.35243H103.021L105.467 3.16538L107.913 9.35243ZM114.82 17.6978V17.5539C114.1 17.2661 113.093 16.9783 112.805 16.5467C112.662 16.115 112.374 15.8273 112.23 15.3956C111.654 13.9567 108.057 4.60423 107.05 1.43876C106.906 1.00711 106.906 0.719338 106.762 0.143799H105.18C105.036 0.719338 104.892 1.15099 104.748 1.72653C104.316 3.0215 101.582 10.3596 99.4242 15.3956C99.2803 15.8273 99.1364 16.115 98.9925 16.5467C98.7048 16.9783 97.6976 17.2661 96.9781 17.5539V17.6978H102.446V17.5539C101.87 17.2661 100.863 16.9783 100.719 16.6906C100.719 16.5467 100.863 15.6834 101.007 15.1078L102.734 10.6474H108.633L110.216 15.1078C110.359 15.5395 110.647 16.2589 110.503 16.5467C110.359 16.9783 109.352 17.2661 108.777 17.5539V17.6978H114.82Z" fill="#85858F"/>
</g>
</g>
<g id="XMLID_2_">
<path id="XMLID_4_" d="M0 0L6.04317 9.92806H7.19424V30.0719H6.04317L0 40H25.8993L19.8561 30.0719H18.8489V23.5971C21.4389 28.0576 26.4748 36.5468 26.4748 36.5468L28.9209 32.518C28.9209 32.518 31.5108 28.0576 34.2446 23.5971V30.0719H33.2374L27.1942 40H53.0935L47.0504 30.0719H46.0432V9.92806H47.1942L53.2374 0H35.5396L26.6187 14.964L17.6978 0H0Z" fill="#85858F"/>
<path id="XMLID_3_" d="M43.3092 32.8058V7.19432H45.6114L48.3452 2.73389H36.9783L26.6186 20.4317L16.115 2.73389H4.89197L7.4819 7.19432H9.92794V32.8058H7.62578L4.89197 37.2663H21.151L18.4171 32.8058H16.115V13.5253L26.6186 31.0792L36.9783 13.5253V32.8058H34.82L32.0862 37.2663H48.2013L45.6114 32.8058H43.3092Z" fill="#85858F"/>
</g>
</g>
<defs>
<clipPath id="clip0_89_261">
<rect width="209.928" height="40" fill="white"/>
</clipPath>
</defs>
</svg>
