<svg width="56" height="56" viewBox="0 0 56 56" fill="none" xmlns="http://www.w3.org/2000/svg">
<path d="M0 16C0 7.16344 7.16344 0 16 0H40C48.8366 0 56 7.16344 56 16V40C56 48.8366 48.8366 56 40 56H16C7.16344 56 0 48.8366 0 40V16Z" fill="#FFC107" fill-opacity="0.1"/>
<path d="M23 23.0005H22C21.4696 23.0005 20.9609 23.2112 20.5858 23.5863C20.2107 23.9613 20 24.4701 20 25.0005V34.0005C20 34.5309 20.2107 35.0396 20.5858 35.4147C20.9609 35.7898 21.4696 36.0005 22 36.0005H31C31.5304 36.0005 32.0391 35.7898 32.4142 35.4147C32.7893 35.0396 33 34.5309 33 34.0005V33.0005" stroke="#FFC107" strokeLinejoin="2" strokeLinecap="round" strokeLinejoin="round"/>
<path d="M32 21L35 24M36.385 22.585C36.7788 22.1912 37.0001 21.657 37.0001 21.1C37.0001 20.543 36.7788 20.0088 36.385 19.615C35.9912 19.2212 35.457 18.9999 34.9 18.9999C34.343 18.9999 33.8088 19.2212 33.415 19.615L25 28V31H28L36.385 22.585Z" stroke="#FFC107" strokeLinejoin="2" strokeLinecap="round" strokeLinejoin="round"/>
</svg>
