<svg width="18" height="20" viewBox="0 0 18 20" fill="none" xmlns="http://www.w3.org/2000/svg">
<path fillRule="evenodd" clipRule="evenodd" d="M1.172 1.172C-1.19209e-07 2.343 0 4.229 0 8V12C0 15.771 -1.19209e-07 17.657 1.172 18.828C2.343 20 4.229 20 8 20H10C13.771 20 15.657 20 16.828 18.828C17.981 17.676 18 15.832 18 12.18L15.182 14.998C14.912 15.268 14.691 15.489 14.442 15.684C14.1494 15.912 13.8329 16.1075 13.498 16.267C13.191 16.4047 12.8757 16.5232 12.554 16.622L10.242 17.393C9.87498 17.5154 9.48113 17.5332 9.10458 17.4443C8.72804 17.3554 8.38368 17.1635 8.11011 16.8899C7.83654 16.6163 7.64456 16.272 7.5557 15.8954C7.46684 15.5189 7.4846 15.125 7.607 14.758L7.881 13.938L8.356 12.512L8.377 12.446C8.498 12.084 8.597 11.788 8.733 11.502C8.893 11.167 9.088 10.851 9.316 10.559C9.511 10.309 9.732 10.089 10.002 9.819L14.008 5.812L15.12 4.7L15.247 4.573C15.5868 4.2322 15.9907 3.96195 16.4354 3.77781C16.88 3.59366 17.3567 3.49925 17.838 3.5C17.687 2.47 17.394 1.737 16.828 1.172C15.657 -1.19209e-07 13.771 0 10 0H8C4.229 0 2.343 -1.19209e-07 1.172 1.172ZM4.25 7C4.25 6.80109 4.32902 6.61032 4.46967 6.46967C4.61032 6.32902 4.80109 6.25 5 6.25H11.5C11.6989 6.25 11.8897 6.32902 12.0303 6.46967C12.171 6.61032 12.25 6.80109 12.25 7C12.25 7.19891 12.171 7.38968 12.0303 7.53033C11.8897 7.67098 11.6989 7.75 11.5 7.75H5C4.80109 7.75 4.61032 7.67098 4.46967 7.53033C4.32902 7.38968 4.25 7.19891 4.25 7ZM4.25 11C4.25 10.8011 4.32902 10.6103 4.46967 10.4697C4.61032 10.329 4.80109 10.25 5 10.25H7.5C7.69891 10.25 7.88968 10.329 8.03033 10.4697C8.17098 10.6103 8.25 10.8011 8.25 11C8.25 11.1989 8.17098 11.3897 8.03033 11.5303C7.88968 11.671 7.69891 11.75 7.5 11.75H5C4.80109 11.75 4.61032 11.671 4.46967 11.5303C4.32902 11.3897 4.25 11.1989 4.25 11ZM4.25 15C4.25 14.8011 4.32902 14.6103 4.46967 14.4697C4.61032 14.329 4.80109 14.25 5 14.25H6.5C6.69891 14.25 6.88968 14.329 7.03033 14.4697C7.17098 14.6103 7.25 14.8011 7.25 15C7.25 15.1989 7.17098 15.3897 7.03033 15.5303C6.88968 15.671 6.69891 15.75 6.5 15.75H5C4.80109 15.75 4.61032 15.671 4.46967 15.5303C4.32902 15.3897 4.25 15.1989 4.25 15Z" fill="url(#paint0_linear_293_977)"/>
<defs>
<linearGradient id="paint0_linear_293_977" x1="0.233766" y1="1.17241" x2="18" y2="1.17241" gradientUnits="userSpaceOnUse">
<stop stop-color="#4A56EE"/>
<stop offset="0.942708" stop-color="#7A4CDD"/>
</linearGradient>
</defs>
</svg>
