<svg xmlns="http://www.w3.org/2000/svg" xmlns:xlink="http://www.w3.org/1999/xlink" width="436" zoomAndPan="magnify" viewBox="0 0 327 77.249999" height="103" preserveAspectRatio="xMidYMid meet" version="1.0"><defs><g/><clipPath id="b5e568708b"><path d="M 183 11.226562 L 321 11.226562 L 321 65.367188 L 183 65.367188 Z M 183 11.226562 " clipRule="nonzero"/></clipPath><clipPath id="013f64ecd2"><path d="M 221.183594 11.226562 L 314.601562 11.226562 C 316.730469 11.226562 318.695312 12.367188 319.75 14.21875 C 320.804688 16.066406 320.785156 18.339844 319.703125 20.171875 L 298.238281 56.417969 C 294.953125 61.964844 288.988281 65.367188 282.539062 65.367188 L 189.121094 65.367188 C 186.992188 65.367188 185.027344 64.222656 183.972656 62.375 C 182.917969 60.523438 182.9375 58.25 184.019531 56.417969 L 205.484375 20.171875 C 208.769531 14.628906 214.738281 11.226562 221.183594 11.226562 Z M 221.183594 11.226562 " clipRule="nonzero"/></clipPath></defs><g clip-path="url(#b5e568708b)"><g clip-path="url(#013f64ecd2)"><path fill="#d2d1d1" d="M 178.722656 11.226562 L 325 11.226562 L 325 65.367188 L 178.722656 65.367188 Z M 178.722656 11.226562 " fill-opacity="1" fillRule="nonzero"/></g></g><g fill="#d2d1d1" fill-opacity="1"><g transform="translate(12.398412, 55.830797)"><g><path d="M 35.96875 -24.9375 C 38.675781 -24.9375 40.828125 -24.078125 42.421875 -22.359375 C 44.015625 -20.640625 44.8125 -18.351562 44.8125 -15.5 L 44.8125 0 L 36.96875 0 L 36.96875 -13.3125 C 36.96875 -14.769531 36.585938 -15.914062 35.828125 -16.75 C 35.078125 -17.59375 34.046875 -18.015625 32.734375 -18.015625 C 31.273438 -17.984375 30.113281 -17.425781 29.25 -16.34375 C 28.382812 -15.269531 27.953125 -13.878906 27.953125 -12.171875 L 27.953125 0 L 20.0625 0 L 20.0625 -13.3125 C 20.0625 -14.769531 19.6875 -15.914062 18.9375 -16.75 C 18.195312 -17.59375 17.171875 -18.015625 15.859375 -18.015625 C 14.367188 -17.984375 13.179688 -17.421875 12.296875 -16.328125 C 11.421875 -15.234375 10.984375 -13.847656 10.984375 -12.171875 L 10.984375 0 L 3.140625 0 L 3.140625 -24.578125 L 10.984375 -24.578125 L 10.984375 -20.515625 C 12.660156 -23.398438 15.367188 -24.875 19.109375 -24.9375 C 21.078125 -24.9375 22.785156 -24.441406 24.234375 -23.453125 C 25.679688 -22.460938 26.707031 -21.101562 27.3125 -19.375 C 28.925781 -23.019531 31.8125 -24.875 35.96875 -24.9375 Z M 35.96875 -24.9375 "/></g></g></g><g fill="#d2d1d1" fill-opacity="1"><g transform="translate(57.070801, 55.830797)"><g><path d="M 14.171875 -24.9375 C 17.546875 -24.9375 20.164062 -24.15625 22.03125 -22.59375 C 23.90625 -21.03125 24.859375 -18.847656 24.890625 -16.046875 L 24.890625 0 L 17.1875 0 L 17.1875 -2.828125 C 15.570312 -0.703125 13.066406 0.359375 9.671875 0.359375 C 7.085938 0.359375 5.035156 -0.351562 3.515625 -1.78125 C 1.992188 -3.207031 1.234375 -5.0625 1.234375 -7.34375 C 1.234375 -9.675781 2.046875 -11.488281 3.671875 -12.78125 C 5.296875 -14.082031 7.628906 -14.742188 10.671875 -14.765625 L 17.140625 -14.765625 L 17.140625 -15.140625 C 17.140625 -16.347656 16.738281 -17.296875 15.9375 -17.984375 C 15.132812 -18.671875 13.941406 -19.015625 12.359375 -19.015625 C 10.140625 -19.015625 7.691406 -18.328125 5.015625 -16.953125 L 2.78125 -22.15625 C 6.757812 -24.007812 10.554688 -24.9375 14.171875 -24.9375 Z M 12.078125 -4.96875 C 13.328125 -4.96875 14.421875 -5.28125 15.359375 -5.90625 C 16.304688 -6.53125 16.898438 -7.34375 17.140625 -8.34375 L 17.140625 -10.53125 L 12.171875 -10.53125 C 9.804688 -10.53125 8.625 -9.648438 8.625 -7.890625 C 8.625 -6.972656 8.925781 -6.253906 9.53125 -5.734375 C 10.132812 -5.222656 10.984375 -4.96875 12.078125 -4.96875 Z M 12.078125 -4.96875 "/></g></g></g><g fill="#d2d1d1" fill-opacity="1"><g transform="translate(81.822638, 55.830797)"><g><path d="M 26.625 -24.578125 L 26.625 -2.234375 C 26.625 1.234375 25.398438 4 22.953125 6.0625 C 20.503906 8.132812 17.289062 9.171875 13.3125 9.171875 C 9.238281 9.171875 5.59375 8.085938 2.375 5.921875 L 5.109375 0.59375 C 7.472656 2.238281 10.007812 3.0625 12.71875 3.0625 C 14.601562 3.0625 16.082031 2.601562 17.15625 1.6875 C 18.238281 0.769531 18.78125 -0.457031 18.78125 -2 L 18.78125 -4.609375 C 17.113281 -2.421875 14.757812 -1.328125 11.71875 -1.328125 C 8.582031 -1.328125 6.035156 -2.421875 4.078125 -4.609375 C 2.117188 -6.796875 1.140625 -9.664062 1.140625 -13.21875 C 1.140625 -16.6875 2.097656 -19.488281 4.015625 -21.625 C 5.929688 -23.769531 8.4375 -24.84375 11.53125 -24.84375 C 14.664062 -24.875 17.082031 -23.78125 18.78125 -21.5625 L 18.78125 -24.578125 Z M 13.671875 -7.015625 C 15.191406 -7.015625 16.421875 -7.566406 17.359375 -8.671875 C 18.304688 -9.785156 18.78125 -11.226562 18.78125 -13 C 18.78125 -14.789062 18.304688 -16.238281 17.359375 -17.34375 C 16.421875 -18.457031 15.191406 -19.015625 13.671875 -19.015625 C 12.128906 -19.015625 10.878906 -18.457031 9.921875 -17.34375 C 8.960938 -16.238281 8.484375 -14.789062 8.484375 -13 C 8.484375 -11.226562 8.960938 -9.785156 9.921875 -8.671875 C 10.878906 -7.566406 12.128906 -7.015625 13.671875 -7.015625 Z M 13.671875 -7.015625 "/></g></g></g><g fill="#d2d1d1" fill-opacity="1"><g transform="translate(108.71695, 55.830797)"><g><path d="M 4.125 -34.625 C 4.894531 -35.40625 5.890625 -35.796875 7.109375 -35.796875 C 8.328125 -35.796875 9.320312 -35.40625 10.09375 -34.625 C 10.875 -33.851562 11.265625 -32.859375 11.265625 -31.640625 C 11.265625 -30.421875 10.875 -29.414062 10.09375 -28.625 C 9.320312 -27.84375 8.328125 -27.453125 7.109375 -27.453125 C 5.890625 -27.453125 4.894531 -27.84375 4.125 -28.625 C 3.351562 -29.414062 2.96875 -30.421875 2.96875 -31.640625 C 2.96875 -32.859375 3.351562 -33.851562 4.125 -34.625 Z M 10.984375 0 L 3.140625 0 L 3.140625 -24.578125 L 10.984375 -24.578125 Z M 10.984375 0 "/></g></g></g><g fill="#d2d1d1" fill-opacity="1"><g transform="translate(120.294776, 55.830797)"><g><path d="M 13.859375 -24.84375 C 16.296875 -24.84375 18.460938 -24.363281 20.359375 -23.40625 C 22.253906 -22.445312 23.734375 -21.085938 24.796875 -19.328125 L 19.15625 -15.90625 C 17.9375 -17.613281 16.273438 -18.46875 14.171875 -18.46875 C 12.660156 -18.46875 11.425781 -17.894531 10.46875 -16.75 C 9.507812 -15.613281 9.03125 -14.117188 9.03125 -12.265625 C 9.03125 -10.378906 9.5 -8.863281 10.4375 -7.71875 C 11.382812 -6.582031 12.628906 -6.015625 14.171875 -6.015625 C 16.484375 -6.015625 18.15625 -6.941406 19.1875 -8.796875 L 24.9375 -5.421875 C 23.9375 -3.597656 22.46875 -2.191406 20.53125 -1.203125 C 18.601562 -0.210938 16.347656 0.28125 13.765625 0.28125 C 9.960938 0.28125 6.898438 -0.863281 4.578125 -3.15625 C 2.253906 -5.457031 1.09375 -8.476562 1.09375 -12.21875 C 1.09375 -15.988281 2.269531 -19.035156 4.625 -21.359375 C 6.976562 -23.679688 10.054688 -24.84375 13.859375 -24.84375 Z M 13.859375 -24.84375 "/></g></g></g><g fill="#d2d1d1" fill-opacity="1"><g transform="translate(143.314374, 55.830797)"><g><path d="M 14.171875 -24.9375 C 17.546875 -24.9375 20.164062 -24.15625 22.03125 -22.59375 C 23.90625 -21.03125 24.859375 -18.847656 24.890625 -16.046875 L 24.890625 0 L 17.1875 0 L 17.1875 -2.828125 C 15.570312 -0.703125 13.066406 0.359375 9.671875 0.359375 C 7.085938 0.359375 5.035156 -0.351562 3.515625 -1.78125 C 1.992188 -3.207031 1.234375 -5.0625 1.234375 -7.34375 C 1.234375 -9.675781 2.046875 -11.488281 3.671875 -12.78125 C 5.296875 -14.082031 7.628906 -14.742188 10.671875 -14.765625 L 17.140625 -14.765625 L 17.140625 -15.140625 C 17.140625 -16.347656 16.738281 -17.296875 15.9375 -17.984375 C 15.132812 -18.671875 13.941406 -19.015625 12.359375 -19.015625 C 10.140625 -19.015625 7.691406 -18.328125 5.015625 -16.953125 L 2.78125 -22.15625 C 6.757812 -24.007812 10.554688 -24.9375 14.171875 -24.9375 Z M 12.078125 -4.96875 C 13.328125 -4.96875 14.421875 -5.28125 15.359375 -5.90625 C 16.304688 -6.53125 16.898438 -7.34375 17.140625 -8.34375 L 17.140625 -10.53125 L 12.171875 -10.53125 C 9.804688 -10.53125 8.625 -9.648438 8.625 -7.890625 C 8.625 -6.972656 8.925781 -6.253906 9.53125 -5.734375 C 10.132812 -5.222656 10.984375 -4.96875 12.078125 -4.96875 Z M 12.078125 -4.96875 "/></g></g></g><g fill="#d2d1d1" fill-opacity="1"><g transform="translate(168.066204, 55.830797)"><g><path d="M 11.265625 0 L 3.375 0 L 3.375 -33.828125 L 11.265625 -33.828125 Z M 11.265625 0 "/></g></g></g><g fill="#ffffff" fill-opacity="1"><g transform="translate(209.044066, 55.82351)"><g><path d="M 18.609375 -24.84375 C 22.066406 -24.84375 24.851562 -23.679688 26.96875 -21.359375 C 29.082031 -19.035156 30.140625 -15.972656 30.140625 -12.171875 C 30.140625 -8.429688 29.101562 -5.421875 27.03125 -3.140625 C 24.96875 -0.859375 22.21875 0.28125 18.78125 0.28125 C 15.5625 0.28125 13.054688 -0.90625 11.265625 -3.28125 L 11.265625 8.84375 L 3.375 8.84375 L 3.375 -24.578125 L 11.265625 -24.578125 L 11.265625 -21.34375 C 13.085938 -23.675781 15.535156 -24.84375 18.609375 -24.84375 Z M 16.6875 -5.96875 C 18.332031 -5.96875 19.660156 -6.566406 20.671875 -7.765625 C 21.691406 -8.972656 22.203125 -10.519531 22.203125 -12.40625 C 22.203125 -14.289062 21.691406 -15.820312 20.671875 -17 C 19.660156 -18.1875 18.332031 -18.78125 16.6875 -18.78125 C 15.101562 -18.78125 13.800781 -18.1875 12.78125 -17 C 11.769531 -15.820312 11.265625 -14.289062 11.265625 -12.40625 C 11.265625 -10.488281 11.765625 -8.9375 12.765625 -7.75 C 13.765625 -6.5625 15.070312 -5.96875 16.6875 -5.96875 Z M 16.6875 -5.96875 "/></g></g></g><g fill="#ffffff" fill-opacity="1"><g transform="translate(237.670609, 55.82351)"><g><path d="M 27.90625 -33.828125 L 27.90625 0 L 20.015625 0 L 20.015625 -3.234375 C 18.222656 -0.867188 15.757812 0.3125 12.625 0.3125 C 9.164062 0.3125 6.382812 -0.851562 4.28125 -3.1875 C 2.1875 -5.53125 1.140625 -8.601562 1.140625 -12.40625 C 1.140625 -16.175781 2.171875 -19.195312 4.234375 -21.46875 C 6.304688 -23.75 9.046875 -24.890625 12.453125 -24.890625 C 15.703125 -24.890625 18.222656 -23.707031 20.015625 -21.34375 L 20.015625 -33.828125 Z M 10.578125 -7.5625 C 11.578125 -6.382812 12.894531 -5.796875 14.53125 -5.796875 C 16.175781 -5.796875 17.5 -6.382812 18.5 -7.5625 C 19.507812 -8.75 20.015625 -10.300781 20.015625 -12.21875 C 20.015625 -14.101562 19.507812 -15.640625 18.5 -16.828125 C 17.5 -18.015625 16.175781 -18.609375 14.53125 -18.609375 C 12.894531 -18.609375 11.578125 -18.019531 10.578125 -16.84375 C 9.578125 -15.675781 9.0625 -14.132812 9.03125 -12.21875 C 9.0625 -10.300781 9.578125 -8.75 10.578125 -7.5625 Z M 10.578125 -7.5625 "/></g></g></g><g fill="#ffffff" fill-opacity="1"><g transform="translate(266.34273, 55.82351)"><g><path d="M 15.234375 -27.953125 C 14.410156 -27.984375 13.734375 -27.757812 13.203125 -27.28125 C 12.671875 -26.8125 12.40625 -26.140625 12.40625 -25.265625 L 12.40625 -23.484375 L 17.96875 -23.484375 L 17.96875 -18.28125 L 12.40625 -18.28125 L 12.40625 0 L 4.609375 0 L 4.609375 -18.28125 L 1.28125 -18.28125 L 1.28125 -23.484375 L 4.609375 -23.484375 L 4.609375 -25.765625 C 4.609375 -28.410156 5.488281 -30.472656 7.25 -31.953125 C 9.007812 -33.441406 11.257812 -34.1875 14 -34.1875 C 16.613281 -34.1875 18.90625 -33.613281 20.875 -32.46875 L 18.09375 -26.953125 C 17.1875 -27.617188 16.234375 -27.953125 15.234375 -27.953125 Z M 15.234375 -27.953125 "/></g></g></g></svg>